<?xml version="1.0" encoding="utf-8"?>
<!-- Generator: Adobe Illustrator 16.0.0, SVG Export Plug-In . SVG Version: 6.00 Build 0)  -->
<!DOCTYPE svg PUBLIC "-//W3C//DTD SVG 1.1//EN" "http://www.w3.org/Graphics/SVG/1.1/DTD/svg11.dtd">
<svg version="1.1" id="Logo_LM_svg" xmlns="http://www.w3.org/2000/svg" xmlns:xlink="http://www.w3.org/1999/xlink" x="0px" y="0px"
	 width="160px" height="100px" viewBox="0 0 160 100" enable-background="new 0 0 160 100" xml:space="preserve">
<g id="Marco_lgsvg">
	<path fill="#0071BC" d="M96.428,83.324c-2.384,0.307-4.769,0.537-7.152,0.803c-2.383,0.26-4.768,0.451-7.15,0.68
		c-2.384,0.221-4.768,0.449-7.152,0.631l-7.152,0.552c-2.384,0.172-4.768,0.354-7.152,0.5l-7.152,0.45
		c-4.768,0.271-9.536,0.543-14.304,0.754l-4.145,0.185l-0.224-4.553c-0.147-3.002-0.287-6.005-0.395-9.007l-0.341-9.008
		l-0.275-9.006c-0.104-3.002-0.142-6.005-0.216-9.007c-0.153-6.004-0.216-12.009-0.296-18.014c-0.051-3.002-0.051-6.004-0.066-9.007
		l-0.04-9.007l-0.026-6.023l6.024,0.025l14.304,0.06L67.82,5.509l14.303,0.304L96.428,6.26l5.201,0.163l-0.191,4.847l-0.354,9.007
		l-0.421,9.007c-0.134,3.002-0.32,6.004-0.485,9.007c-0.158,3.002-0.359,6.004-0.555,9.007c-0.184,3.002-0.416,6.005-0.633,9.007
		l-0.727,9.006l-0.838,9.008l-0.479,4.505C96.788,80.322,96.62,81.824,96.428,83.324z M96.428,83.324
		c-0.191-1.5-0.359-3.002-0.519-4.502l-0.479-4.504l-0.838-9.008l-0.726-9.006c-0.218-3.003-0.449-6.006-0.634-9.008
		c-0.194-3.002-0.396-6.004-0.555-9.007c-0.164-3.002-0.353-6.004-0.484-9.007l-0.422-9.007l-0.354-9.007l5.01,5.01l-14.305,0.447
		L67.82,17.031l-14.304,0.178l-14.304,0.06l5.998-5.998l-0.04,9.007c-0.015,3.002-0.015,6.004-0.066,9.007
		c-0.08,6.004-0.143,12.009-0.296,18.014c-0.074,3.002-0.113,6.006-0.216,9.008l-0.275,9.006l-0.341,9.008
		c-0.108,3.002-0.248,6.004-0.395,9.006l-4.369-4.367c4.768,0.209,9.536,0.484,14.304,0.754l7.152,0.451
		c2.384,0.145,4.768,0.326,7.152,0.498l7.152,0.553c2.384,0.18,4.768,0.41,7.152,0.629c2.384,0.23,4.769,0.422,7.151,0.682
		C91.659,82.787,94.044,83.018,96.428,83.324z"/>
</g>
<g id="LetraElesvg" enable-background="new    ">
	<path d="M65.279,63.871c0,0.637,0.019,1.134,0.057,1.492c0.038,0.357,0.137,0.636,0.3,0.834c0.163,0.199,0.433,0.325,0.809,0.378
		c0.375,0.054,0.902,0.079,1.579,0.079h3.721c2.004,0,3.64-0.053,4.905-0.158c1.265-0.105,2.336-0.438,3.213-0.994
		c0.877-0.557,1.654-1.404,2.331-2.545c0.677-1.139,1.428-2.743,2.256-4.811l1.879,0.438c0,0.186-0.063,0.676-0.188,1.471
		c-0.127,0.795-0.283,1.71-0.471,2.744c-0.188,1.033-0.395,2.094-0.62,3.18c-0.226,1.088-0.45,2.027-0.677,2.823
		c-0.326,0.901-0.939,1.352-1.842,1.352c-1.879-0.026-4.216-0.054-7.009-0.079c-2.794-0.027-6.159-0.04-10.092-0.04H59.19
		c-0.351,0-0.589-0.112-0.714-0.338c-0.125-0.226-0.188-0.443-0.188-0.656V30.197c0-0.742-0.069-1.345-0.207-1.809
		c-0.138-0.463-0.338-0.828-0.602-1.093c-0.263-0.265-0.577-0.45-0.939-0.557c-0.364-0.105-0.771-0.159-1.222-0.159
		c-0.551,0-1.103,0.04-1.654,0.12l-0.226-2.187c1.353-0.265,2.637-0.49,3.853-0.676c1.215-0.185,2.293-0.331,3.233-0.437
		c0.939-0.106,1.722-0.186,2.349-0.239c0.626-0.053,1.027-0.08,1.203-0.08c0.802,0,1.203,0.424,1.203,1.272V63.871z"/>
</g>
<g id="LetraEmesvg" enable-background="new    ">
	<path fill="#F7931E" d="M104.664,49.254c13.472-14.424,22.094-21.637,25.865-21.637c1.574,0,2.361,0.792,2.361,2.373
		c0,1.459-0.563,3.083-1.69,4.87c-0.837,1.274-5.924,7.089-15.262,17.445c-7.77,9.119-11.653,14.472-11.653,16.057
		c0,0.557,0.379,0.864,1.137,0.926c0.759,0.063,1.138,0.184,1.138,0.363c0,0.561-0.594,0.84-1.779,0.84
		c-1.672,0-2.508-0.832-2.508-2.496c0-3.104,3.626-8.928,10.877-17.477c2.547-3,7.367-8.26,14.464-15.781
		c2.41-2.547,3.615-4.334,3.615-5.362c0-0.391-0.185-0.585-0.554-0.585c-1.342,0-5.123,2.733-11.343,8.199
		c-4.978,4.377-8.69,7.859-11.14,10.448c-2.351,2.486-5.439,6-9.267,10.541c-6.896,8.199-10.451,12.298-10.665,12.298
		c-0.295,0-0.643-0.195-1.044-0.585c-0.402-0.391-0.603-0.74-0.603-1.049c0-0.801,4.13-6.359,12.393-16.674
		c8.262-10.314,12.394-16.293,12.394-17.936c0-0.41-0.195-0.616-0.584-0.616c-0.991,0-3.558,1.644-7.698,4.931
		c-3.811,3.041-8,6.862-12.567,11.463L78.734,62.169l-4.143,4.716c-2.314,2.63-3.559,3.945-3.734,3.945
		c-0.31,0-0.696-0.166-1.16-0.494c-0.522-0.349-0.783-0.678-0.783-0.986c0-0.678,2.439-3.904,7.319-9.678L89.88,43.46
		c4.879-6.081,7.319-9.841,7.319-11.279c0-0.534-0.253-0.801-0.759-0.801c-1.399,0-4.315,1.899-8.748,5.698
		c-3.324,2.854-8.058,7.885-14.201,15.092c-0.389,0.452-0.7,0.678-0.933,0.678c-0.428,0-0.642-0.175-0.642-0.523
		c0-0.534,1.701-2.865,5.103-6.993c2.43-2.916,5.501-5.996,9.214-9.241c4.802-4.189,8.271-6.284,10.41-6.284
		c1.438,0,2.158,0.833,2.158,2.497c0,2.794-3.499,8.711-10.498,17.752c11.956-12.018,19.46-18.028,22.512-18.028
		c1.438,0,2.158,0.781,2.158,2.342C112.975,36.835,110.204,41.796,104.664,49.254z"/>
</g>
</svg>
