<?xml version="1.0" encoding="utf-8"?>
<!-- Generator: Adobe Illustrator 16.0.0, SVG Export Plug-In . SVG Version: 6.00 Build 0)  -->
<!DOCTYPE svg PUBLIC "-//W3C//DTD SVG 1.1//EN" "http://www.w3.org/Graphics/SVG/1.1/DTD/svg11.dtd">
<svg version="1.1" id="Logo_LM_svg" xmlns="http://www.w3.org/2000/svg" xmlns:xlink="http://www.w3.org/1999/xlink" x="0px"
	 y="0px" width="100px" height="100px" viewBox="30 0 100 100" enable-background="new 30 0 100 100" xml:space="preserve">
<g id="Marco_lgsvg">
	<path fill="#0071BC" d="M91.768,83.102c-2.133,0.274-4.266,0.48-6.398,0.718c-2.132,0.232-4.266,0.404-6.397,0.608
		c-2.133,0.197-4.266,0.402-6.398,0.564l-6.399,0.494c-2.132,0.154-4.265,0.316-6.398,0.447l-6.399,0.402
		c-4.266,0.243-8.532,0.486-12.797,0.675l-3.708,0.166l-0.2-4.073c-0.131-2.687-0.257-5.374-0.354-8.06l-0.305-8.059l-0.246-8.058
		c-0.093-2.686-0.127-5.373-0.193-8.059c-0.137-5.372-0.194-10.744-0.265-16.116c-0.045-2.686-0.045-5.372-0.059-8.059l-0.036-8.058
		l-0.023-5.389l5.39,0.022l12.797,0.054l12.796,0.158l12.797,0.272l12.798,0.4l4.653,0.146l-0.171,4.337l-0.316,8.058l-0.377,8.059
		c-0.119,2.686-0.286,5.372-0.434,8.058c-0.142,2.686-0.321,5.372-0.496,8.058c-0.165,2.686-0.372,5.373-0.566,8.059l-0.65,8.058
		l-0.75,8.059l-0.43,4.031C92.09,80.416,91.94,81.76,91.768,83.102z M91.768,83.102c-0.171-1.342-0.321-2.686-0.464-4.028
		l-0.429-4.029l-0.75-8.059l-0.648-8.058c-0.195-2.688-0.402-5.375-0.567-8.061c-0.174-2.686-0.354-5.371-0.496-8.058
		c-0.147-2.686-0.316-5.372-0.434-8.058l-0.378-8.059l-0.316-8.059l4.482,4.482l-12.799,0.4L66.173,23.79l-12.797,0.159
		l-12.798,0.054l5.367-5.366l-0.036,8.058c-0.014,2.686-0.014,5.372-0.059,8.059c-0.071,5.372-0.128,10.744-0.265,16.117
		c-0.066,2.687-0.101,5.374-0.193,8.06l-0.246,8.057l-0.305,8.06c-0.097,2.687-0.222,5.372-0.354,8.059l-3.909-3.907
		c4.266,0.187,8.532,0.432,12.798,0.674l6.398,0.404c2.133,0.13,4.266,0.291,6.399,0.445l6.399,0.494
		c2.133,0.162,4.266,0.367,6.399,0.563c2.133,0.207,4.267,0.379,6.398,0.611C87.502,82.621,89.635,82.827,91.768,83.102z"/>
</g>
<g id="LetraElesvg" enable-background="new    ">
	<path d="M63.899,65.697c0,0.569,0.017,1.015,0.051,1.335c0.034,0.318,0.123,0.568,0.269,0.746c0.146,0.178,0.387,0.29,0.723,0.338
		s0.808,0.071,1.413,0.071h3.329c1.793,0,3.256-0.048,4.388-0.142c1.132-0.095,2.09-0.392,2.875-0.89
		c0.785-0.498,1.48-1.257,2.085-2.277c0.606-1.019,1.278-2.454,2.019-4.304l1.681,0.392c0,0.166-0.057,0.604-0.168,1.315
		c-0.113,0.712-0.254,1.531-0.422,2.455c-0.168,0.925-0.353,1.874-0.555,2.846c-0.201,0.973-0.402,1.813-0.605,2.525
		c-0.291,0.807-0.84,1.21-1.647,1.21c-1.681-0.023-3.772-0.049-6.271-0.07c-2.5-0.024-5.511-0.036-9.029-0.036h-5.583
		c-0.314,0-0.527-0.101-0.639-0.302c-0.112-0.203-0.168-0.397-0.168-0.588V35.57c0-0.664-0.062-1.204-0.186-1.619
		c-0.124-0.415-0.302-0.741-0.539-0.978c-0.235-0.237-0.516-0.403-0.84-0.499c-0.326-0.094-0.69-0.142-1.094-0.142
		c-0.493,0-0.987,0.036-1.479,0.107l-0.202-1.957c1.21-0.237,2.359-0.438,3.447-0.605c1.087-0.166,2.051-0.296,2.893-0.391
		c0.84-0.095,1.541-0.167,2.102-0.214c0.56-0.047,0.918-0.071,1.076-0.071c0.717,0,1.076,0.379,1.076,1.138V65.697z"/>
</g>
<g id="LetraEmesvg" enable-background="new    ">
	<path fill="#F7931E" d="M99.137,52.619c12.054-12.905,19.767-19.358,23.142-19.358c1.408,0,2.112,0.708,2.112,2.123
		c0,1.306-0.504,2.758-1.513,4.357c-0.748,1.14-5.301,6.343-13.655,15.607c-6.951,8.159-10.425,12.948-10.425,14.366
		c0,0.498,0.339,0.773,1.017,0.829c0.68,0.057,1.02,0.165,1.02,0.324c0,0.502-0.532,0.752-1.593,0.752
		c-1.495,0-2.243-0.744-2.243-2.233c0-2.777,3.243-7.988,9.731-15.637c2.278-2.684,6.591-7.39,12.939-14.119
		c2.156-2.278,3.234-3.877,3.234-4.797c0-0.35-0.165-0.523-0.495-0.523c-1.2,0-4.584,2.445-10.148,7.336
		c-4.454,3.916-7.774,7.031-9.967,9.348c-2.104,2.224-4.866,5.368-8.291,9.431c-6.169,7.335-9.35,11.002-9.542,11.002
		c-0.264,0-0.575-0.174-0.934-0.522c-0.359-0.351-0.539-0.662-0.539-0.938c0-0.717,3.694-5.689,11.087-14.919
		c7.392-9.227,11.09-14.577,11.09-16.046c0-0.367-0.175-0.551-0.522-0.551c-0.888,0-3.185,1.471-6.888,4.412
		C94.344,45.582,90.596,49,86.51,53.117L75.938,64.174l-3.707,4.22c-2.07,2.354-3.184,3.529-3.34,3.529
		c-0.277,0-0.623-0.148-1.038-0.441c-0.467-0.313-0.7-0.606-0.7-0.883c0-0.606,2.182-3.493,6.548-8.658l12.209-14.505
		c4.365-5.44,6.549-8.804,6.549-10.091c0-0.478-0.228-0.717-0.68-0.717c-1.251,0-3.86,1.699-7.827,5.098
		c-2.973,2.554-7.208,7.055-12.704,13.503c-0.348,0.404-0.626,0.605-0.835,0.605c-0.383,0-0.575-0.156-0.575-0.467
		c0-0.479,1.522-2.563,4.566-6.257c2.174-2.609,4.921-5.364,8.243-8.268c4.297-3.748,7.4-5.622,9.313-5.622
		c1.287,0,1.931,0.745,1.931,2.234c0,2.5-3.13,7.793-9.393,15.882c10.697-10.752,17.412-16.129,20.142-16.129
		c1.287,0,1.931,0.699,1.931,2.096C106.572,41.508,104.094,45.947,99.137,52.619z"/>
</g>
</svg>
